Coordinates
version=1
nRows=6
nColumns=40
inDegrees=yes

Units are S.I. units (second, meters, Newtons, ...)
If the header above contains a line with 'inDegrees', this indicates whether rotational values are in degrees (yes) or radians (no).

endheader
time	pelvis_tilt	pelvis_list	pelvis_rotation	pelvis_tx	pelvis_ty	pelvis_tz	hip_flexion_r	hip_adduction_r	hip_rotation_r	knee_angle_r	knee_angle_r_beta	ankle_angle_r	subtalar_angle_r	mtp_angle_r	hip_flexion_l	hip_adduction_l	hip_rotation_l	knee_angle_l	knee_angle_l_beta	ankle_angle_l	subtalar_angle_l	mtp_angle_l	lumbar_extension	lumbar_bending	lumbar_rotation	arm_flex_r	arm_add_r	arm_rot_r	elbow_flex_r	pro_sup_r	wrist_flex_r	wrist_dev_r	arm_flex_l	arm_add_l	arm_rot_l	elbow_flex_l	pro_sup_l	wrist_flex_l	wrist_dev_l
      9.50000000000000000000	     24.88570196197978035002	      5.22563238765604509695	   -173.11966599152182766375	      0.37386839245203401516	      0.88463730242193960862	     -0.55358992993054090270	     62.87438855115124880513	    -14.56594876075213029765	    -10.91495821418933509506	     48.78508463549982110408	      0.85146035275356957150	     12.60022037720197474187	      0.00000000000000000000	      0.00000000000000000000	     67.01776898386118830331	     -3.78207352369841576234	      5.47904489025423835358	     50.36680597968487660410	      0.87906659805866937951	      7.96572118017442143412	      0.00000000000000000000	      0.00000000000000000000	    -46.46211380424387726862	     12.22810271716504004758	      0.65976813133680523027	     55.13445150956486173754	    -14.74008364262181736137	     26.55444480509975946347	     20.66525314045239269944	     88.41079585299577558999	      0.00000000000000000000	      0.00000000000000000000	     63.56441868587484833597	    -11.90813287137384968162	     78.54966705342334876150	     17.35977897618004206493	     78.24727770628413736631	      0.00000000000000000000	      0.00000000000000000000
      9.50500000000000078160	     24.80188378328938370032	      5.20204382376784657538	   -173.20572963168399382994	      0.37335157975282284859	      0.88566907268452288449	     -0.55359309619372709665	     62.64405355826995247526	    -14.44745365642096501801	    -10.89417876758823311434	     48.55884925198905932575	      0.84751180042679474802	     12.50751079665925047379	      0.00000000000000000000	      0.00000000000000000000	     66.80930454764099124532	     -3.88993577618228014714	      5.37691457362619917859	     50.24958548075485964546	      0.87702071440151008197	      7.88063870797737919816	      0.00000000000000000000	      0.00000000000000000000	    -46.26763250132260907321	     12.14390164316881559614	      0.68127672958948803927	     54.91852326712034226830	    -14.78749087191919819873	     26.84888537061057078859	     20.62026005112923598972	     88.40494103452708429813	      0.00000000000000000000	      0.00000000000000000000	     63.29899977371083252820	    -11.78748685517579097848	     78.51797494428969059754	     17.19195736563961318666	     78.28725499758091643798	      0.00000000000000000000	      0.00000000000000000000
      9.50999999999999978684	     24.67650704836163200184	      4.96426971274935091571	   -173.17737335241588425561	      0.37277669428077858660	      0.88679194481620682300	     -0.55327414989502887721	     62.40846900058075163997	    -14.58069124819288298056	    -10.74513513176662726778	     48.40600664642376926849	      0.84484419372235342038	     12.47836403658424586638	      0.00000000000000000000	      0.00000000000000000000	     66.45289620673126762540	     -3.73760726121387776288	      5.19964219937522731385	     50.02916333627366185510	      0.87317362223600647475	      7.81709335936979243797	      0.00000000000000000000	      0.00000000000000000000	    -46.08414240332814415524	     11.96744441635883049457	      0.40796330588037693632	     54.74378321990845108758	    -14.61510965257159710973	     26.86661542649029499330	     20.37205158898509793630	     88.40216310198198357284	      0.00000000000000000000	      0.00000000000000000000	     63.09500742887722424257	    -11.86870879131228306846	     78.87661454185298737229	     17.25347182689923997145	     78.28050625241159821144	      0.00000000000000000000	      0.00000000000000000000
      9.51500000000000056843	     24.59299368862394175039	      4.85222187285922856859	   -173.24485302870203895509	      0.37223458639430551109	      0.88770936938727451615	     -0.55325646073666268077	     62.17485256535934468047	    -14.53370171668425747669	    -10.65097334181509403095	     48.16987270645885388376	      0.84072287899425901525	     12.50883807727593932668	      0.00000000000000000000	      0.00000000000000000000	     66.19013362449386761455	     -3.75530865921447709610	      5.07410435623243216696	     49.85610631878927279104	      0.87015320748722246869	      7.79767759255996306678	      0.00000000000000000000	      0.00000000000000000000	    -45.84919845118439951648	     11.81999062748763584807	      0.31852898273803370577	     54.51599668481674143550	    -14.56050412041701669352	     27.05800343148619901967	     20.21898527004356438397	     88.40116753029194285318	      0.00000000000000000000	      0.00000000000000000000	     62.81450797865512925000	    -11.86629304906445270262	     78.90428931680010293803	     17.23578530801197317146	     78.25367760218466628430	      0.00000000000000000000	      0.00000000000000000000
      9.51999999999999957367	     24.49670776934839366845	      4.77343148760452784529	   -173.32414860518190380390	      0.37167749244067871395	      0.88870714596928179763	     -0.55325881648853669770	     61.89728220563456062564	    -14.45337098061354019762	    -10.60152988598337131521	     47.88602827144134010950	      0.83576885903974029723	     12.53042562038789142775	      0.00000000000000000000	      0.00000000000000000000	     65.90214526067414624322	     -3.80063270163379485211	      4.96855461190971503527	     49.66007237724041090132	      0.86673176976153276652	      7.79362621182650450180	      0.00000000000000000000	      0.00000000000000000000	    -45.63139320529632669832	     11.69480508145230857053	      0.26302330767205200912	     54.25474325845042500305	    -14.52810524307415462886	     27.17065417134076454886	     20.16098236541112598275	     88.40099792756400631788	      0.00000000000000000000	      0.00000000000000000000	     62.53617626842989096758	    -11.86360022429604299532	     78.84975315903884052204	     17.21468724497197655410	     78.33213562971209853458	      0.00000000000000000000	      0.00000000000000000000
      9.52500000000000035527	     24.40735887225404354695	      4.83273315157123128927	   -173.27892867984556346528	      0.37116599384434706410	      0.88954879389956009739	     -0.55298126243258016732	     61.60996924561690946121	    -14.43026809559988699050	    -10.75914466161726146254	     47.64777183716091002452	      0.83161049979748535854	     12.49606994091102230016	      0.00000000000000000000	      0.00000000000000000000	     65.69494828668442210073	     -3.79169296332430283414	      5.02783660170854940219	     49.52162339403889745881	      0.86431537915862799437	      7.82033541562873413255	      0.00000000000000000000	      0.00000000000000000000	    -45.37889682317265993561	     11.78651309195914720362	      0.17395481090496700549	     53.99758226931254512238	    -14.41131878720289805074	     26.95750333679601951076	     20.08320118626525285777	     88.40095054784573846973	      0.00000000000000000000	      0.00000000000000000000	     62.19669413597880236466	    -11.84915115645144645384	     78.49405352391843848636	     17.13525156506980096083	     78.55837304397621778662	      0.00000000000000000000	      0.00000000000000000000
